<?xml version="1.0" encoding="UTF-8"?>
<svg version="1.1" xmlns="http://www.w3.org/2000/svg" width="400" height="289">
<path d="M0 0 C1.64874367 -0.00855011 1.64874367 -0.00855011 3.33079529 -0.01727295 C5.65110328 -0.0266667 7.97142428 -0.03323436 10.29174805 -0.03710938 C13.74748847 -0.04670532 17.20260451 -0.07773802 20.65820312 -0.109375 C54.92538758 -0.27263869 90.6892825 4.10022069 121.55859375 19.828125 C129.51580111 23.85519728 137.23596699 25.71208601 145.97167969 27.32739258 C162.19170968 30.39223886 184.12577273 35.34135233 196.38671875 47.2890625 C200.9378126 50.33555975 205.96867068 50.71105979 211.30859375 51.578125 C235.07201017 55.80173974 263.90479009 62.43389997 279.84765625 82.1875 C283.94877816 88.46519499 284.38722354 94.88319485 283.24609375 102.203125 C282.05914266 105.36658496 280.45285275 107.6633768 278.24609375 110.203125 C277.53646484 111.07324219 277.53646484 111.07324219 276.8125 111.9609375 C271.68253773 117.66658132 264.95063268 121.59298865 258.24609375 125.203125 C257.58609375 125.203125 256.92609375 125.203125 256.24609375 125.203125 C256.24609375 179.323125 256.24609375 233.443125 256.24609375 289.203125 C186.94609375 289.203125 117.64609375 289.203125 46.24609375 289.203125 C46.24609375 280.623125 46.24609375 272.043125 46.24609375 263.203125 C21.82609375 263.203125 -2.59390625 263.203125 -27.75390625 263.203125 C-27.75390625 256.603125 -27.75390625 250.003125 -27.75390625 243.203125 C-48.54390625 243.203125 -69.33390625 243.203125 -90.75390625 243.203125 C-90.72135742 238.24144287 -90.68880859 233.27976074 -90.65527344 228.16772461 C-90.55654847 211.78706951 -90.5230543 195.40676307 -90.52331161 179.02582455 C-90.52187088 169.09239505 -90.49804062 159.15996396 -90.42138672 149.22680664 C-90.35462633 140.56831864 -90.32999209 131.91090719 -90.35581136 123.25218207 C-90.3680146 118.66746147 -90.35921475 114.08496274 -90.29994965 109.50056267 C-90.2447987 105.18289393 -90.24608569 100.86887709 -90.29021263 96.55111694 C-90.29651849 94.96885753 -90.28239682 93.38636111 -90.24606514 91.8045063 C-90.14410606 87.07067267 -90.21436636 82.7397135 -91.75390625 78.203125 C-95.39304052 74.85467179 -99.24477285 73.12208106 -103.75390625 71.203125 C-105.89316701 69.65801447 -107.47342091 68.05845239 -109.31640625 66.140625 C-110.49396484 64.94759766 -110.49396484 64.94759766 -111.6953125 63.73046875 C-116.47207741 57.86601543 -117.42954131 52.93095356 -117.21875 45.51953125 C-116.17092341 38.0438609 -112.02073986 32.98558479 -106.44140625 28.140625 C-77.05958861 6.40071509 -35.70563373 0.14862746 0 0 Z " fill="#0A7BF2" transform="translate(116.75390625,-0.203125)"/>
<path d="M0 0 C1.64874367 -0.00855011 1.64874367 -0.00855011 3.33079529 -0.01727295 C5.65110328 -0.0266667 7.97142428 -0.03323436 10.29174805 -0.03710938 C13.74748847 -0.04670532 17.20260451 -0.07773802 20.65820312 -0.109375 C54.92538758 -0.27263869 90.6892825 4.10022069 121.55859375 19.828125 C129.51580111 23.85519728 137.23596699 25.71208601 145.97167969 27.32739258 C163.99694023 30.73334514 186.32657841 36.32483302 199.24609375 50.203125 C196.51663515 50.06168668 193.78761252 49.91512971 191.05859375 49.765625 C189.90520508 49.70665039 189.90520508 49.70665039 188.72851562 49.64648438 C187.60219727 49.58364258 187.60219727 49.58364258 186.453125 49.51953125 C185.76710205 49.48287354 185.0810791 49.44621582 184.37426758 49.40844727 C182.24609375 49.203125 182.24609375 49.203125 180.08203125 48.70043945 C175.9484991 47.97557677 171.85394711 47.97989265 167.6640625 47.9296875 C166.71373642 47.91720474 165.76341034 47.90472198 164.7842865 47.89186096 C145.52075669 47.68906234 126.49976974 47.94723799 107.37109375 50.390625 C106.57585297 50.48877502 105.78061218 50.58692505 104.96127319 50.68804932 C93.38990672 52.15370249 82.40711399 54.85804064 71.24609375 58.203125 C70.00496826 58.56325684 68.76384277 58.92338867 67.48510742 59.29443359 C50.69550352 64.1937598 32.55521183 71.48341841 23.0703125 87.14453125 C21.06526329 92.15240297 21.50528475 97.82564496 23.0859375 102.8984375 C26.33858389 110.06083057 31.0517236 115.28290593 38.25654984 118.58133793 C46.57937735 122.45708934 46.57937735 122.45708934 48.33565521 127.05653191 C48.72727041 130.67403641 48.73150491 134.12062543 48.60839844 137.75756836 C48.60500963 139.12803854 48.60692128 140.49853047 48.6137085 141.86898804 C48.61714114 145.57492882 48.54679892 149.27617422 48.46282101 152.98102641 C48.38760988 156.85783869 48.38074165 160.73476863 48.36651611 164.61219788 C48.32927281 171.9476461 48.23088311 179.28093858 48.11032224 186.615439 C47.95088504 196.53111091 47.8862945 206.44737584 47.81629562 216.364007 C47.70358303 231.97865995 47.4645047 247.58876458 47.24609375 263.203125 C22.49609375 263.203125 -2.25390625 263.203125 -27.75390625 263.203125 C-27.75390625 256.603125 -27.75390625 250.003125 -27.75390625 243.203125 C-48.54390625 243.203125 -69.33390625 243.203125 -90.75390625 243.203125 C-90.72135742 238.24144287 -90.68880859 233.27976074 -90.65527344 228.16772461 C-90.55654847 211.78706951 -90.5230543 195.40676307 -90.52331161 179.02582455 C-90.52187088 169.09239505 -90.49804062 159.15996396 -90.42138672 149.22680664 C-90.35462633 140.56831864 -90.32999209 131.91090719 -90.35581136 123.25218207 C-90.3680146 118.66746147 -90.35921475 114.08496274 -90.29994965 109.50056267 C-90.2447987 105.18289393 -90.24608569 100.86887709 -90.29021263 96.55111694 C-90.29651849 94.96885753 -90.28239682 93.38636111 -90.24606514 91.8045063 C-90.14410606 87.07067267 -90.21436636 82.7397135 -91.75390625 78.203125 C-95.39304052 74.85467179 -99.24477285 73.12208106 -103.75390625 71.203125 C-105.89316701 69.65801447 -107.47342091 68.05845239 -109.31640625 66.140625 C-110.49396484 64.94759766 -110.49396484 64.94759766 -111.6953125 63.73046875 C-116.47207741 57.86601543 -117.42954131 52.93095356 -117.21875 45.51953125 C-116.17092341 38.0438609 -112.02073986 32.98558479 -106.44140625 28.140625 C-77.05958861 6.40071509 -35.70563373 0.14862746 0 0 Z " fill="#C405E8" transform="translate(116.75390625,-0.203125)"/>
<path d="M0 0 C1.64874367 -0.00855011 1.64874367 -0.00855011 3.33079529 -0.01727295 C5.65110328 -0.0266667 7.97142428 -0.03323436 10.29174805 -0.03710938 C13.74748847 -0.04670532 17.20260451 -0.07773802 20.65820312 -0.109375 C57.7958545 -0.28631484 95.31778016 5.27186513 128.24609375 23.203125 C128.24609375 23.533125 128.24609375 23.863125 128.24609375 24.203125 C125.70435368 24.05849814 123.16270857 23.91242517 120.62109375 23.765625 C119.92757812 23.72630859 119.2340625 23.68699219 118.51953125 23.64648438 C115.09627597 23.44781331 111.67838018 23.23957906 108.26123047 22.95141602 C98.61579297 22.16007207 89.01831158 22.01695339 79.34423828 22.01782227 C76.64599592 22.01564509 73.94817008 21.99744067 71.25 21.97851562 C38.12269231 21.87025768 3.21356822 26.45455853 -26.75390625 41.203125 C-27.78 41.69683594 -28.80609375 42.19054688 -29.86328125 42.69921875 C-39.22895698 47.47260873 -48.19845948 53.89574805 -51.75390625 64.203125 C-52.77244036 70.05060207 -52.11271173 75.12506227 -49.125 80.2734375 C-44.68305884 86.5250584 -39.90229314 90.15895622 -33.0619812 93.57118225 C-29.50675411 95.60031726 -27.11490538 97.28246925 -25.56973648 101.22311211 C-25.14400133 104.97672846 -25.13263108 108.53839182 -25.26220703 112.31420898 C-25.26423978 113.73247061 -25.26054411 115.15075019 -25.25158691 116.56898499 C-25.24361719 120.40117567 -25.31565129 124.22808502 -25.40285349 128.05913424 C-25.48066556 132.0702715 -25.48512027 136.08150077 -25.49777222 140.09327698 C-25.52896301 146.8215024 -25.60662982 153.54779236 -25.71826172 160.27514648 C-25.87588662 169.77447542 -25.95423542 179.27320269 -26.0144732 188.7735852 C-26.09829225 201.48760368 -26.20867104 214.20170675 -26.40298462 226.9145565 C-26.42355902 228.29285603 -26.44250416 229.67118094 -26.4597435 231.04952621 C-26.48371926 232.92305445 -26.51473498 234.79648874 -26.5461731 236.66990662 C-26.56213594 237.72049979 -26.57809879 238.77109297 -26.59454536 239.8535223 C-26.75390625 242.203125 -26.75390625 242.203125 -27.75390625 243.203125 C-29.71759778 243.2971317 -31.68469824 243.32055881 -33.65063477 243.31665039 C-34.91186661 243.31657486 -36.17309845 243.31649933 -37.47254944 243.31642151 C-38.85930419 243.3113141 -40.24605854 243.30609809 -41.6328125 243.30078125 C-43.04385834 243.29891701 -44.45490482 243.29749314 -45.86595154 243.29649353 C-49.5863116 243.29266879 -53.30663285 243.2828389 -57.02697754 243.27178955 C-60.82071406 243.26157448 -64.61445683 243.25699571 -68.40820312 243.25195312 C-75.85678856 243.24121658 -83.30534197 243.2241407 -90.75390625 243.203125 C-90.74799847 242.35921172 -90.74209068 241.51529844 -90.73600388 240.64581203 C-90.59634354 220.10574893 -90.52298897 199.56638061 -90.52331161 179.02582455 C-90.52187088 169.09239505 -90.49804062 159.15996396 -90.42138672 149.22680664 C-90.35462633 140.56831864 -90.32999209 131.91090719 -90.35581136 123.25218207 C-90.3680146 118.66746147 -90.35921475 114.08496274 -90.29994965 109.50056267 C-90.2447987 105.18289393 -90.24608569 100.86887709 -90.29021263 96.55111694 C-90.29651849 94.96885753 -90.28239682 93.38636111 -90.24606514 91.8045063 C-90.14410606 87.07067267 -90.21436636 82.7397135 -91.75390625 78.203125 C-95.39304052 74.85467179 -99.24477285 73.12208106 -103.75390625 71.203125 C-105.89316701 69.65801447 -107.47342091 68.05845239 -109.31640625 66.140625 C-110.49396484 64.94759766 -110.49396484 64.94759766 -111.6953125 63.73046875 C-116.47207741 57.86601543 -117.42954131 52.93095356 -117.21875 45.51953125 C-116.17092341 38.0438609 -112.02073986 32.98558479 -106.44140625 28.140625 C-77.05958861 6.40071509 -35.70563373 0.14862746 0 0 Z " fill="#F10412" transform="translate(116.75390625,-0.203125)"/>
<path d="M0 0 C0.33 0 0.66 0 1 0 C1 45.87 1 91.74 1 139 C-23.75 139 -48.5 139 -74 139 C-74 120 -74 120 -72 118 C-69.02609253 117.75949097 -69.02609253 117.75949097 -65.16357422 117.77294922 C-64.44965578 117.77270815 -63.73573734 117.77246708 -63.00018501 117.7722187 C-60.68489323 117.77371375 -58.36992182 117.78895493 -56.0546875 117.8046875 C-54.62703608 117.80762735 -53.19938252 117.80966815 -51.77172852 117.81079102 C-46.47278618 117.82128509 -41.17388996 117.84920743 -35.875 117.875 C-24.03625 117.91625 -12.1975 117.9575 0 118 C0 79.06 0 40.12 0 0 Z " fill="#BB09F1" transform="translate(163,124)"/>
</svg>
